<?xml version="1.0" encoding="utf-8"?>
<!-- Generator: Adobe Illustrator 21.0.0, SVG Export Plug-In . SVG Version: 6.00 Build 0)  -->
<svg version="1.1" id="Layer_1" xmlns="http://www.w3.org/2000/svg" xmlns:xlink="http://www.w3.org/1999/xlink" x="0px" y="0px"
	 width="960px" height="233.1px" viewBox="0 0 960 233.1" style="enable-background:new 0 0 960 233.1;" xml:space="preserve">
<style type="text/css">
	.st0{fill:#010101;}
	.st1{fill:none;}
</style>
<g>
	<path class="st0" d="M97.3,1.2l21.9,58h-18.5l-3-8.4H77.3l-3,8.4H56.4l21.9-58H97.3z M82.7,35.9h9.6l-4.8-13.3L82.7,35.9z"/>
	<path class="st0" d="M138.5,42.5v16.6h-18V1.2h28.2c12.7,0,21.8,7.7,21.8,21.2c0,8.2-3.8,14.3-9.9,17.5l12,19.4h-20.1l-9.7-16.6
		h-4.3V42.5z M138.5,28.2h7.7c4.7,0,6.5-2.4,6.5-5.9c0-3.6-1.8-5.9-6.5-5.9h-7.7V28.2z"/>
	<path class="st0" d="M171.6,1.2h52.5v15.6H207v42.4h-18.3V16.7h-17.1L171.6,1.2L171.6,1.2z"/>
	<path class="st0" d="M244.9,59.1h-18.3V1.2h18.3V59.1z"/>
	<path class="st0" d="M266,41.3c0.8,2.8,3.4,4.3,7.2,4.3c3.3,0,5.9-1.2,5.9-3.8c0-2-1.5-2.5-3.8-3l-11.9-2.5
		c-8.9-1.8-15.3-6.3-15.3-16.4c0-12.3,10.4-19.7,23.8-19.7c15.2,0,23.5,8.5,24.9,18.8H279c-0.9-2.6-3.1-4.4-7-4.4
		c-3.2,0-5.4,1.1-5.4,3.3c0,1.8,1.4,2.5,3.2,2.9l12.1,2.8c10.4,2.5,15.6,8,15.6,17.1c0,12.5-10.8,19.4-23.8,19.4
		c-14.8,0-24.7-7-26.7-18.8C247,41.3,266,41.3,266,41.3z"/>
	<path class="st0" d="M336.5,1.2l21.9,58h-18.5l-3-8.4h-20.4l-3,8.4h-17.9l21.9-58H336.5z M321.9,35.9h9.6l-4.8-13.3L321.9,35.9z"/>
	<path class="st0" d="M413.5,59.1h-15l-21.2-29v29h-17.7V1.2h17.1l19.1,27v-27h17.7V59.1z"/>
	<path class="st0" d="M463.1,17.9c-0.2-1.9-1.3-3.6-3.8-3.6s-3.6,1.6-3.6,3.5c0,2.1,1.7,4.1,3.4,6.1l9.2,11.2
		c0.8-2.2,1.2-4.6,1.2-7.4H485c0,7.6-2.5,14.3-6.7,19.5L488,59h-19.2l-2.1-2.4c-4.2,2.2-8.8,3.3-13.2,3.3
		c-12.8,0-21.2-6.7-21.2-18.7c0-6.1,3.1-11.8,8.3-15c-1.7-2.9-2.3-5.7-2.3-8.7c0-10.6,8.5-17.5,21-17.5c12.4,0,19.9,7.6,21,17.7
		h-17.2V17.9z M457.4,46l-7.5-8.5c-0.8,0.9-1.3,2.3-1.3,3.9c0,2.7,1.8,5.1,5.4,5.1C455,46.5,456.3,46.3,457.4,46z"/>
	<path class="st0" d="M534.4,40.5V27.6h25.2V34c0,16.1-10.7,26.1-26.8,26.1c-17.6,0-29.6-12.4-29.6-29.9c0-17.6,12-29.9,29.6-29.9
		c15.8,0,24.6,9.2,26.7,21.2h-18.8c-1.1-3.3-3.9-5.2-7.9-5.2c-7.4,0-11.1,5.9-11.1,14c0,8.6,4.2,14,11.1,14c4.1,0,6.9-1.2,8.4-3.6
		h-6.8V40.5z"/>
	<path class="st0" d="M590.3,60.1c-17.4,0-29.2-12.7-29.2-29.9c0-17.4,11.8-29.9,29.2-29.9s29.3,12.6,29.3,29.9
		C619.6,47.4,607.7,60.1,590.3,60.1z M590.3,16.2c-6.4,0-10.8,5.3-10.8,14s4.3,14,10.8,14c6.4,0,10.9-5.3,10.9-14
		S596.8,16.2,590.3,16.2z"/>
	<path class="st0" d="M621.7,35.2v-34h18.2v32.4c0,6.5,3.3,10.2,8.2,10.2s8.2-3.7,8.2-10.2V1.2h18.2v34c0,16-10.2,24.9-26.4,24.9
		C632,60.1,621.7,51.1,621.7,35.2z"/>
	<path class="st0" d="M696.5,42.5v16.6h-18V1.2h28.2c12.7,0,21.8,7.7,21.8,21.2c0,8.2-3.8,14.3-9.9,17.5l12,19.4h-20.1l-9.7-16.6
		h-4.3V42.5z M696.5,28.2h7.7c4.7,0,6.5-2.4,6.5-5.9c0-3.6-1.8-5.9-6.5-5.9h-7.7V28.2z"/>
	<path class="st0" d="M758.6,59.1L748.8,28v31.1h-17V1.2h22.8l9.8,31.1l9.9-31.1H797v58h-17V28.1l-9.9,31.1L758.6,59.1L758.6,59.1z"
		/>
	<path class="st0" d="M845,1.2v15.6h-25.6v5.4h23.4v15.1h-23.4v6.1H845v15.7h-43.6V1.2H845z"/>
	<path class="st0" d="M847,1.2h52.5v15.6h-17.1v42.4h-18.3V16.7H847V1.2z"/>
	<path class="st0" d="M254.6,134.2h-18.3v-58h18.3V134.2z"/>
	<path class="st0" d="M285.8,75.3c15.3,0,23.9,9.3,25.9,21.1h-18.3c-1-3.1-3.7-5.1-7.6-5.1c-6.6,0-10.3,5.9-10.3,14
		c0,7.9,3.7,14,10.3,14c3.9,0,6.5-2,7.6-5.2h18.3c-2,11.9-10.6,21.2-25.9,21.2c-16.9,0-28.7-12.6-28.7-29.9
		C257.1,87.8,268.9,75.3,285.8,75.3z"/>
	<path class="st0" d="M357.9,76.2v15.6h-25.6v5.5h23.4v15.1h-23.4v6.1h25.6v15.7h-43.6v-58H357.9z"/>
	<path class="st0" d="M404.3,75.3c15.3,0,23.9,9.3,25.9,21.1h-18.3c-1-3.1-3.7-5.1-7.6-5.1c-6.6,0-10.3,5.9-10.3,14
		c0,7.9,3.7,14,10.3,14c3.9,0,6.5-2,7.6-5.2h18.3c-2,11.9-10.6,21.2-25.9,21.2c-16.9,0-28.7-12.6-28.7-29.9
		C375.6,87.8,387.4,75.3,404.3,75.3z"/>
	<path class="st0" d="M450.8,117.6v16.6h-18v-58H461c12.7,0,21.8,7.7,21.8,21.2c0,8.2-3.8,14.3-9.9,17.5l12,19.4h-20.1l-9.7-16.6
		L450.8,117.6L450.8,117.6z M450.8,103.2h7.7c4.7,0,6.5-2.4,6.5-5.9c0-3.6-1.8-5.9-6.5-5.9h-7.7V103.2z"/>
	<path class="st0" d="M529.7,76.2v15.6h-25.6v5.5h23.4v15.1h-23.4v6.1h25.6v15.7h-43.6v-58H529.7z"/>
	<path class="st0" d="M571.4,76.2l21.9,58h-18.5l-3-8.4h-20.4l-3,8.4h-17.9l21.9-58H571.4z M556.7,111h9.6l-4.8-13.3L556.7,111z"/>
	<path class="st0" d="M621.3,134.2l-9.8-31.1v31.1h-17v-58h22.8l9.8,31.1l9.9-31.1h22.8v58h-17v-31.1l-9.9,31.1H621.3z"/>
	<path class="st0" d="M680.8,116.3c0.9,2.8,3.4,4.3,7.2,4.3c3.3,0,5.9-1.2,5.9-3.8c0-2-1.5-2.5-3.8-3l-11.9-2.5
		c-8.9-1.8-15.3-6.3-15.3-16.4c0-12.3,10.4-19.7,23.8-19.7c15.2,0,23.5,8.5,24.9,18.8h-17.8c-0.9-2.6-3.1-4.4-7-4.4
		c-3.2,0-5.4,1.1-5.4,3.3c0,1.8,1.4,2.5,3.2,2.9l12.1,2.8c10.4,2.5,15.6,8,15.6,17.1c0,12.5-10.8,19.4-23.8,19.4
		c-14.8,0-24.7-7-26.7-18.8L680.8,116.3L680.8,116.3z"/>
	<path class="st0" d="M728.6,114.4c5.7,0,10.1,4.3,10.1,10.2c0,5.8-4.4,10.2-10.1,10.2c-5.6,0-10-4.4-10-10.2
		C718.6,118.8,723,114.4,728.6,114.4z"/>
</g>
<g>
	<g>
		<path class="st0" d="M818.8,166.8c-1.3-0.2-2.6-0.6-3.5-1.5s-1.3-1.9-1.5-3.1c-0.1-0.4-0.1-0.8-0.1-1.2c-0.7,1.1-1.4,2.2-2.2,3.2
			c-2.1,2.5-4.2,4.2-8.1,5.3c-2.8,0.8-5.5,0.6-6-2.5c-0.2-1.3,0-2.6,0.3-3.9c1-4,4-7.1,5.3-11.1c0.3-0.9,0.7-2.5,0.6-3.4
			c0-0.3-0.1-0.5-0.4-0.7c-0.2-0.2-0.5-0.2-0.7-0.1c-1.2,0.3-2.8,2.1-3.5,3c-1,1.3-2,2.8-2.7,4.4l-7.3,16.9l-6.4,1.1l-2.7,0.5
			l-2.2,0.4c-2.5,1.1-5.2,1.1-6.8-1.6c-3.4,4.3-7.9,5.9-13.3,4c-2.9-1-3.7-3.8-3.5-6.8l-0.1,0.2c-1.9,2.9-3.7,5.8-5.6,7.3
			c-1.9,1.5-4.3,2.7-5.8,3c-1.2,0.2-2.5,0.1-3.5-0.6c-0.9-0.7-1.5-1.8-1.8-3.2c-0.2-0.9-0.2-1.9,0-3c-0.1,0.1-0.2,0.3-0.3,0.4
			c-1.6,1.9-3.3,3.6-5.1,5.3s-3.9,3.2-6.1,4.3c-0.9,0.5-1.8,0.9-2.8,1.2c-0.9,0.3-1.9,0.6-2.9,0.8c-0.6,0.1-1.2,0.2-1.9,0.2
			c-0.6,0-1.3,0-1.9-0.1c-4.2-0.3-6.2-4.2-6-7.7c-3.1,4.2-6.9,7.9-11.6,10.4c-0.9,0.5-1.8,0.9-2.8,1.2c-0.9,0.3-1.9,0.6-2.9,0.8
			c-0.6,0.1-1.2,0.2-1.9,0.2c-0.6,0-1.3,0-1.9-0.1c-3.2-0.3-5.2-2.7-5.8-5.4l0,0c-1.4,3.1-4.3,6.3-7.7,7.5c-2.6,0.9-5.7,0.9-6.9-1.6
			c-4.9,5.8-14.7,7.6-16.8,1.5l0,0c-6.5,5.1-19.1,10.2-27.7,8.6c-6.8,5.5-17,7.9-21.6,2.3c-1.4-1.7-1.2-4.1,0.1-5.8
			c2.3-2.9,5.5-1.9,8.1-1.7c3.2,0.2,6.3,0.1,9.8,0c10.6-16.3,13.8-56.8,38.3-63.8c9.2-2.6,18.4,3.2,16.4,13.9
			c-2.3,12.1-19.1,25.2-31.3,28.7c-5.9,1.7,1-2.2,3.1-3.5c4.1-2.6,7.8-5.7,11.1-9.4c4.9-5.5,14.9-21.4,9.5-26.2
			c-4.6-4.1-10.8,5.8-14.2,11.6c-7.9,13.6-17.8,37.1-26.3,48.4c4.9-0.2,11.2-1.8,17-3.8c5.2-1.8,6.2-3,8.7-7.5l0,0
			c0.3-0.6,0.5-1.1,0.8-1.7c2.3-4.3,4.4-8.6,6.6-13v-0.1h0.1c2.5-0.6,5.5-1.2,8-1.6c-2.8,4-5.3,8.6-7.3,13.1
			c-0.8,1.8-1.8,3.8-2.2,5.7c-2.1,6.6,4.1,5.4,6.4,1.8c4.2-6.6,7.3-14.9,10.6-21.9l8.5-1.5c-1.5,2.2-3.3,5.3-4.4,7.8
			c-1.6,3.5-2.8,6.5-4.3,10c-0.6,1.4-1.4,5.8,1.3,5.3c0.7-0.1,1.4-0.6,2-1c0.9-0.7,1.7-1.6,2.3-2.6c0.6-0.9,1.3-2.5,2.1-4.6
			c0.2-0.6,0.4-1.2,0.6-1.8c0.1-0.2,0.1-0.3,0.2-0.5l0,0c1.1-2.7,2.8-5.2,4.5-7.5c3-3.9,13.5-12.7,19.6-7.5c2.6,2.2,0.8,6.1-0.6,8.1
			c-1.1,1.6-4.1,5.5-3.8,0.9c0.1-1.8,0.1-3.2,0.1-5.1c0-3.4-3.1-3-4.9-1.1c-1,1.1-1.9,2.2-2.7,3.5c-1.7,2.8-11.9,19.2-1,17.2
			c1.3-0.2,2.6-0.8,3.7-1.4c1.3-0.8,2.5-1.7,3.7-2.7c3.2-2.9,7.3-8.6,10.5-13.1c0.8-1.2,1.6-2.4,2.5-3.6c3-3.9,13.5-12.7,19.6-7.5
			c2.6,2.2,0.8,6.1-0.6,8.1c-1.1,1.6-4.1,5.5-3.8,0.9c0.1-1.8,0.1-3.2,0.1-5.1c0-3.4-3.1-3-4.9-1.1c-1,1.1-1.9,2.2-2.7,3.5
			c-1.6,2.8-11.9,19.2-1,17.2c1.3-0.2,2.6-0.8,3.7-1.4c1.3-0.8,2.5-1.7,3.7-2.7c4.1-3.7,6.7-6.7,9.8-11.7l0,0
			c1.9-3.4,4.5-6.5,5.5-11.1l9-1.6c0.3,1.8-2,5.6-2.9,6.9c-1.3,1.9-7.7,11.3-5.2,13.2c0.3,0.2,0.7,0.3,1.2,0.2
			c2.4-0.4,3.6-3.2,4.8-4.9c1.7-2.5,2.8-4.1,3.9-5.9l0,0c3.2-6.6,11-16.3,18.9-12.5c0.5,0.3,1,0.7,1.6,0.9l1-1.9l7.2-1.3
			c0.1,0-7.8,17.7-7.9,19.4c-0.2,3,1.6,5.4,4.3,3.2c0.2-0.2,0.4-0.4,0.7-0.6c3.4-7.4,6.4-14.3,9.2-23.2l8.4-1.6
			c-0.1,0.8,0,1.5,0.1,2.2c0.4-0.4,0.7-0.9,1.2-1.2c0.6-0.5,1.3-1,2-1.3c0.4-0.2,0.8-0.4,1.2-0.5s0.8-0.2,1.2-0.3
			c1.4-0.2,2.7-0.1,3.9,0.4s2,1.4,2.4,2.6v0.1h0.1v0.1v0.1v0.1c0.2,1.2,0,2.4-0.4,3.5c-0.4,1.4-0.9,2.8-1.5,4.1
			c-0.2,0.4-0.4,0.8-0.6,1.2c-0.2,0.4-0.4,0.8-0.6,1.3c-0.9,1.7-1.6,2.8-2.4,4.5c-1.5,3.1-0.7,5.2,1.9,2.2c3.3-3.7,6-8.4,8.2-11.8
			c1-1.9,2.2-3.6,3.6-5.3c2-2.5,4.3-4.7,7-6.3c0.9-0.5,1.8-1,2.8-1.4c0.9-0.4,1.8-0.7,2.8-0.8c0.9-0.2,1.8-0.2,2.7-0.1
			c0.9,0.1,1.7,0.3,2.5,0.6c0.9,0.3,1.6,0.9,2.1,1.6c0.5,0.7,0.8,1.5,1,2.4c0.2,1.2,0.1,2.5-0.1,3.7c-0.3,1.4-0.7,2.8-1.3,4.2
			c-1.2,3-3,5.8-5.1,8.4c-2.1,2.5-4.5,4.8-7.4,6.4c-0.8,0.4-1.5,0.7-2.3,1.1c-0.8,0.3-1.5,0.5-2.4,0.7c-0.6,0.1-1.1,0.2-1.7,0.2
			C819.9,166.9,819.3,166.9,818.8,166.8L818.8,166.8L818.8,166.8z M639.5,233.1l9.3-21.3c32.5-20.1,84.2-19.3,127.2-25.6
			c11.8-1.7,24.7-3.4,35.7-7.3c6.8-2.5,13-5.8,18.4-10.2c4.4-3.6,7.2-7.5,10.4-12c2.2-3.1,2.5-2.4,0.5,1.4
			c-2.2,4.4-4.7,8.7-7.8,12.5c-5.6,6.9-13.2,12.6-22.5,16.8c-10.7,4.8-23.5,7.1-35.2,9.3C736.2,203.8,684.2,207.4,639.5,233.1
			L639.5,233.1L639.5,233.1z M861,145.3c2.4,3.7,2.7,9.1-0.6,12.7c-2.9,3.2-7.2,5.1-11.4,4.9c-0.9-0.1-1.8-0.2-2.7-0.5
			c-3.6-1.5-3-2.7-0.8-5.1c0.3-0.4,1.3-1.5,1.7-0.6c1.4,2.9,3.5,5.8,6.7,2c1.5-2.1,0.8-4.4-0.3-6.4c-1.3-2.4-3.7-3.8-5.2-6.2
			c-1-1.7-1.4-3.6-0.2-5.5c1.7-2.8,4-5.4,6.2-7.4c1.6-1.5,3.1-1.5,5.3-2.1c0.3-0.1,1.8-0.5,2.8-0.5c0.1,0,0.3,0,0.4,0
			c0.6,0,0,0.7-0.2,0.9C857.2,136.4,856.2,137.2,861,145.3L861,145.3L861,145.3L861,145.3z M842.7,128.8c-0.2-0.3-0.4-0.3-0.5,0
			c-0.4,1.2-1.1,2.3-2.2,3.3c-0.2,0.2-0.2,0.3,0.1,0.4c3.1,2,3.7,4.6,4.2,8c0.1,0.5,0.2,0.9,0.5,0.3
			C846,136.6,845.1,132.4,842.7,128.8L842.7,128.8L842.7,128.8L842.7,128.8z M749.6,140.9c-2.6,0.5-4.3,2.9-3.8,5.5s2.9,4.3,5.5,3.8
			s4.3-2.9,3.8-5.5C754.6,142.2,752.2,140.5,749.6,140.9L749.6,140.9L749.6,140.9L749.6,140.9z M773.1,155c0.9-4-1.7-4.5-4.3-1.8
			c-3.6,3.8-6.4,9.4-7.4,14.6c-1.2,6,2.1,7.1,5.3,2.4c0.3-0.5,0.6-1,0.8-1.5c0.3-0.5,0.5-1,0.8-1.6
			C770.2,163.2,772.2,159.3,773.1,155L773.1,155L773.1,155L773.1,155z M830.4,156.5c0.2-0.4,0.4-0.8,0.6-1.1c0.8-1.5,1.5-3,2.1-4.6
			s1.2-3.2,1.5-4.8c0.9-4.3-0.6-8.3-4.5-3.7c-1.2,1.4-2.3,3-3.2,4.7c-1.3,2.3-8.6,17.2-2.7,15.9c1-0.2,1.8-0.8,2.5-1.5
			C828.3,160,829.5,158.2,830.4,156.5L830.4,156.5L830.4,156.5z"/>
	</g>
</g>
<g>
	<g>
		<rect class="st1" width="960" height="233.1"/>
	</g>
</g>
</svg>
