<?xml version="1.0" encoding="utf-8"?>
<!-- Generator: Adobe Illustrator 21.0.0, SVG Export Plug-In . SVG Version: 6.00 Build 0)  -->
<svg version="1.1" id="Layer_1" xmlns="http://www.w3.org/2000/svg" xmlns:xlink="http://www.w3.org/1999/xlink" x="0px" y="0px"
	 width="1346px" height="413px" viewBox="0 0 1346 413" style="enable-background:new 0 0 1346 413;" xml:space="preserve">
<style type="text/css">
	.st0{fill-rule:evenodd;clip-rule:evenodd;fill:#010101;}
	.st1{fill:#010101;}
</style>
<g>
	<path class="st0" d="M796.4,318.2c-1.9-0.2-3.7-0.8-5.1-2.2c-1.2-1.2-1.9-2.7-2.2-4.4c-0.1-0.6-0.2-1.1-0.2-1.7
		c-1,1.6-2,3.1-3.1,4.5c-2.9,3.6-6,6-11.6,7.6c-4,1.2-7.9,0.9-8.6-3.5c-0.3-1.8,0-3.8,0.4-5.5c1.5-5.7,5.7-10.2,7.6-15.8
		c0.4-1.3,1.1-3.5,0.8-4.9c-0.1-0.4-0.2-0.8-0.5-1c-0.3-0.2-0.7-0.2-1-0.2c-1.7,0.4-3.9,3-5,4.3c-1.5,1.8-2.9,4-3.9,6.2l-10.5,24.2
		l-9.2,1.6l-3.8,0.7l-3.2,0.6c-3.6,1.6-7.4,1.6-9.7-2.3c-4.8,6.1-11.3,8.4-19,5.7c-4.1-1.5-5.2-5.5-5-9.7l-0.2,0.3
		c-2.7,4.2-5.4,8.3-8,10.5c-2.7,2.2-6.1,3.8-8.3,4.2c-1.8,0.3-3.5,0.2-5-0.9c-1.3-1-2.2-2.5-2.5-4.6c-0.2-1.2-0.2-2.7,0-4.3
		c-0.2,0.2-0.3,0.4-0.5,0.6c-2.2,2.7-4.7,5.2-7.3,7.6c-2.6,2.4-5.5,4.5-8.7,6.2c-1.3,0.7-2.6,1.3-4,1.8c-1.3,0.5-2.7,0.9-4.1,1.1
		c-0.9,0.2-1.8,0.2-2.7,0.3c-0.9,0-1.8,0-2.8-0.1c-5.9-0.5-8.8-6-8.6-11c-4.4,5.9-9.8,11.3-16.5,14.8c-1.3,0.7-2.6,1.3-4,1.8
		c-1.3,0.5-2.7,0.9-4.1,1.1c-0.9,0.2-1.8,0.2-2.7,0.3c-0.9,0-1.9,0-2.8-0.1c-4.6-0.4-7.4-3.8-8.3-7.7l0,0c-2,4.5-6.2,9-11,10.7
		c-3.7,1.3-8.2,1.3-9.8-2.3c-7,8.3-21,10.9-24,2.1l0,0c-9.2,7.3-27.3,14.6-39.6,12.3c-9.7,7.8-24.3,11.2-30.8,3.3
		c-2-2.4-1.7-5.8,0.2-8.2c3.2-4.1,7.9-2.7,11.6-2.5c4.6,0.3,9,0.1,14,0c15.2-23.3,19.7-81.2,54.7-91.1c13.1-3.7,26.3,4.6,23.4,19.9
		c-3.2,17.2-27.3,36-44.7,41c-8.4,2.4,1.4-3.2,4.4-5.1c5.8-3.7,11.2-8.1,15.8-13.4c7-7.9,21.3-30.6,13.6-37.4
		c-6.6-5.9-15.5,8.3-20.2,16.5c-11.2,19.5-25.5,53-37.6,69.1c7-0.3,16-2.6,24.2-5.4c7.4-2.6,8.9-4.3,12.5-10.7h0
		c0.4-0.8,0.8-1.6,1.2-2.4c3.3-6.1,6.4-12.3,9.5-18.5l0.1-0.1l0.1,0c3.5-0.9,7.9-1.7,11.5-2.3c-4,5.8-7.6,12.3-10.4,18.7
		c-1.1,2.6-2.5,5.4-3.2,8.2c-2.9,9.4,5.8,7.7,9.2,2.5c6-9.4,10.4-21.3,15.1-31.3l12.1-2.1c-2.1,3.2-4.8,7.6-6.3,11.1
		c-2.2,5-4,9.3-6.1,14.3c-0.8,2.1-2,8.2,1.9,7.5c1-0.2,2.1-0.8,2.9-1.4c1.3-1,2.4-2.3,3.3-3.7c0.9-1.3,1.9-3.6,3-6.5
		c0.2-0.9,0.5-1.7,0.8-2.6c0.1-0.2,0.2-0.4,0.2-0.6l0,0c1.5-3.9,3.9-7.4,6.4-10.7c4.2-5.6,19.3-18.2,28-10.7
		c3.7,3.2,1.1,8.7-0.8,11.5c-1.5,2.2-5.9,7.9-5.4,1.2c0.2-2.6,0.2-4.6,0.1-7.3c0-4.8-4.4-4.3-7-1.6c-1.4,1.5-2.7,3.2-3.8,5
		c-2.4,4-17,27.4-1.5,24.6c1.9-0.3,3.7-1.1,5.3-2c1.9-1.1,3.6-2.4,5.2-3.8c4.6-4.1,10.5-12.3,15-18.7c1.1-1.8,2.3-3.5,3.5-5.1
		c4.2-5.6,19.3-18.1,28-10.7c3.7,3.2,1.1,8.7-0.8,11.5c-1.5,2.2-5.9,7.9-5.4,1.2c0.2-2.6,0.2-4.6,0.1-7.3c0-4.8-4.4-4.3-7-1.6
		c-1.4,1.5-2.7,3.2-3.8,5c-2.4,4-17,27.4-1.5,24.7c1.9-0.3,3.7-1.1,5.3-2c1.9-1.1,3.6-2.4,5.2-3.8c5.9-5.3,9.5-9.6,14-16.7l0,0
		c2.7-4.8,6.5-9.2,7.8-15.9l12.9-2.4c0.4,2.6-2.8,7.9-4.1,9.9c-1.8,2.6-11,16.2-7.4,18.9c0.4,0.3,1,0.4,1.7,0.3
		c3.5-0.6,5.1-4.5,6.8-7.1c2.5-3.6,4-5.9,5.6-8.5l0,0c4.6-9.4,15.7-23.2,27-17.9c0.8,0.4,1.5,1,2.2,1.3l1.4-2.7l10.3-1.8
		c0.1,0-11.2,25.3-11.3,27.7c-0.3,4.3,2.3,7.8,6.2,4.6c0.3-0.3,0.6-0.6,0.9-0.9c4.9-10.5,9.1-20.4,13.2-33.1l12-2.2
		c-0.2,1.2,0,2.1,0.2,3.1c0.5-0.6,1.1-1.2,1.7-1.8c0.9-0.8,1.8-1.4,2.9-1.9c0.5-0.3,1.1-0.5,1.7-0.7c0.6-0.2,1.1-0.4,1.7-0.5
		c1.9-0.3,3.8-0.2,5.6,0.6c1.7,0.7,2.9,1.9,3.5,3.7c0,0.1,0,0.1,0,0.2l0.1,0.1l0,0.1c0,0.1,0,0.1,0,0.2c0,0.1,0,0.1,0,0.2
		c0.3,1.6,0,3.4-0.5,5c-0.6,2-1.4,3.9-2.2,5.9c-0.3,0.6-0.6,1.1-0.8,1.7c-0.3,0.6-0.6,1.2-0.8,1.8c-1.2,2.4-2.2,4-3.4,6.4
		c-2.1,4.4-1,7.4,2.7,3.2c4.7-5.3,8.6-12,11.8-16.9c1.5-2.7,3.2-5.2,5.1-7.6c2.8-3.5,6.1-6.7,9.9-9.1c1.3-0.8,2.6-1.5,4-2
		c1.3-0.5,2.6-0.9,4-1.2c1.3-0.2,2.5-0.3,3.8-0.2c1.3,0.1,2.5,0.4,3.6,0.9c1.2,0.5,2.2,1.2,3,2.3c0.7,1,1.2,2.2,1.4,3.4
		c0.3,1.7,0.2,3.5-0.1,5.3c-0.4,2.1-1,4.1-1.8,6c-1.8,4.3-4.3,8.3-7.3,12c-3,3.6-6.5,6.8-10.6,9.1c-1.1,0.6-2.2,1.1-3.3,1.5
		c-1.1,0.4-2.2,0.7-3.4,0.9c-0.8,0.1-1.6,0.2-2.4,0.2C797.9,318.4,797.1,318.4,796.4,318.2L796.4,318.2L796.4,318.2z M540.1,413
		l13.3-30.5c46.5-28.7,120.4-27.6,181.8-36.6c16.8-2.5,35.3-4.8,51-10.4c9.8-3.5,18.5-8.3,26.2-14.6c6.3-5.2,10.3-10.6,14.9-17.1
		c3.1-4.4,3.5-3.4,0.8,2c-3.1,6.3-6.8,12.4-11.2,17.9c-8.1,9.9-18.9,18.1-32.2,24c-15.3,6.8-33.6,10.2-50.4,13.2
		C678.4,371.1,604,376.2,540.1,413L540.1,413L540.1,413z M856.8,287.6c3.4,5.3,3.8,13-0.9,18.1c-4.1,4.5-10.3,7.3-16.3,7
		c-1.3-0.1-2.6-0.3-3.8-0.7c-5.2-2.1-4.3-3.8-1.1-7.2c0.5-0.5,1.9-2.1,2.5-0.9c2,4.2,5,8.3,9.6,2.8c2.1-3,1.1-6.3-0.4-9.1
		c-1.9-3.5-5.4-5.5-7.4-8.8c-1.5-2.4-1.9-5.2-0.3-7.8c2.5-4,5.7-7.7,8.9-10.6c2.3-2.1,4.4-2.1,7.6-3.1c0.4-0.1,2.6-0.7,3.9-0.8
		c0.2,0,0.4,0,0.5,0c0.9,0.1,0,1-0.3,1.3C851.3,274.8,849.9,275.9,856.8,287.6L856.8,287.6L856.8,287.6L856.8,287.6z M830.6,264
		c-0.3-0.4-0.6-0.4-0.7,0c-0.6,1.8-1.6,3.3-3.1,4.7c-0.3,0.3-0.2,0.4,0.1,0.6c4.4,2.8,5.3,6.6,6,11.4c0.1,0.7,0.3,1.3,0.7,0.4
		C835.3,275.1,833.9,269.1,830.6,264L830.6,264L830.6,264L830.6,264z M697.5,281.3c-3.7,0.7-6.1,4.1-5.5,7.8
		c0.6,3.7,4.1,6.1,7.8,5.5c3.7-0.6,6.1-4.1,5.5-7.8C704.7,283.1,701.2,280.6,697.5,281.3L697.5,281.3L697.5,281.3L697.5,281.3z
		 M731.1,301.4c1.3-5.6-2.5-6.4-6.1-2.6c-5.2,5.4-9.1,13.5-10.6,20.8c-1.8,8.6,3,10.2,7.5,3.4c0.4-0.7,0.8-1.4,1.2-2.1
		c0.4-0.7,0.8-1.5,1.2-2.2C726.9,313,729.7,307.5,731.1,301.4L731.1,301.4L731.1,301.4L731.1,301.4z M813,303.6
		c0.3-0.5,0.6-1.1,0.9-1.6c1.2-2.1,2.2-4.3,3.1-6.5c0.9-2.2,1.6-4.5,2.1-6.9c1.3-6.1-0.8-11.8-6.4-5.3c-1.7,2.1-3.2,4.3-4.6,6.7
		c-1.9,3.3-12.3,24.6-3.8,22.7c1.4-0.3,2.6-1.1,3.6-2.2C809.9,308.5,811.6,305.9,813,303.6L813,303.6L813,303.6z"/>
</g>
<g>
	<g>
		<path class="st1" d="M617.8,0c3.3,0,5.3,2,5.7,4.7h-3.5c-0.3-1-1.1-1.6-2.3-1.6c-1.8,0-2.9,1.6-2.9,3.8c0,2.2,1,3.8,2.9,3.8
			c1.2,0,1.9-0.6,2.3-1.6h3.5c-0.5,2.7-2.4,4.7-5.7,4.7c-3.7,0-6.4-2.8-6.4-6.9S614.1,0,617.8,0z"/>
		<path class="st1" d="M631.4,13.7c-3.8,0-6.5-2.9-6.5-6.9c0-4,2.6-6.9,6.5-6.9c3.9,0,6.5,2.9,6.5,6.9
			C637.9,10.8,635.2,13.7,631.4,13.7z M631.4,3.1c-1.8,0-3,1.5-3,3.8s1.2,3.8,3,3.8s3-1.5,3-3.8S633.2,3.1,631.4,3.1z"/>
		<path class="st1" d="M651.5,13.5h-2.8l-5.6-7.8v7.8h-3.4V0.2h3.2l5.1,7.3V0.2h3.4V13.5z"/>
		<path class="st1" d="M653.4,0.2H665v3h-4.1v10.3h-3.5V3.2h-4.1V0.2z"/>
		<path class="st1" d="M673.2,0.2l5.1,13.3h-3.5l-1-2.6H669l-0.9,2.6h-3.4l5.1-13.3H673.2z M670.1,8.1h2.7l-1.4-3.7L670.1,8.1z"/>
		<path class="st1" d="M685,0c3.3,0,5.3,2,5.7,4.7h-3.5c-0.3-1-1.1-1.6-2.3-1.6c-1.8,0-2.9,1.6-2.9,3.8c0,2.2,1,3.8,2.9,3.8
			c1.2,0,1.9-0.6,2.3-1.6h3.5c-0.5,2.7-2.4,4.7-5.7,4.7c-3.7,0-6.4-2.8-6.4-6.9S681.3,0,685,0z"/>
		<path class="st1" d="M691.8,0.2h11.7v3h-4.1v10.3h-3.5V3.2h-4.1V0.2z"/>
		<path class="st1" d="M710,8.1V0.2h3.5v7.6c0,1.9,0.9,2.9,2.3,2.9c1.4,0,2.3-1,2.3-2.9V0.2h3.5v7.9c0,3.6-2.3,5.6-5.8,5.6
			S710,11.7,710,8.1z"/>
		<path class="st1" d="M726.7,9.6c0.3,0.9,1.1,1.4,2.1,1.4c1.1,0,1.8-0.5,1.8-1.3c0-0.6-0.4-0.9-1.3-1.1L726.8,8
			c-1.9-0.4-3.4-1.4-3.4-3.7c0-2.6,2.2-4.3,5.1-4.3c3.2,0,5.1,1.8,5.5,4.1h-3.4c-0.3-0.7-0.9-1.3-2-1.3c-1,0-1.7,0.4-1.7,1.2
			c0,0.6,0.4,0.9,1.1,1.1l2.6,0.6c2.3,0.5,3.5,1.8,3.5,3.8c0,2.7-2.3,4.3-5.2,4.3c-3.2,0-5.3-1.5-5.8-4.2H726.7z"/>
	</g>
</g>
<g>
	<g>
		<path class="st1" d="M345.3,186c2.4,7.9,9.4,12.1,19.9,12.1c9.2,0,16.3-3.4,16.3-10.5c0-5.5-4.2-7.1-10.5-8.4l-33-6.8
			c-24.7-5-42.5-17.6-42.5-45.6c0-34.1,28.9-54.8,66.1-54.8c42.2,0,65.3,23.6,69.2,52.2h-49.6c-2.6-7.3-8.7-12.3-19.4-12.3
			c-8.9,0-15,3.1-15,9.2c0,5,3.9,7.1,8.9,8.1l33.6,7.9c28.9,6.8,43.3,22.3,43.3,47.5c0,34.6-29.9,53.8-66.1,53.8
			c-41.2,0-68.7-19.4-74.2-52.2H345.3z"/>
		<path class="st1" d="M541.2,74.5l60.8,161h-51.4l-8.4-23.3h-56.7l-8.4,23.3h-49.8l60.8-161H541.2z M500.6,171.1h26.8l-13.4-37
			L500.6,171.1z"/>
		<path class="st1" d="M671.6,74.5h53l-57.7,108.1v53h-51.1v-53L558.8,74.5h55.1l28.9,57.4L671.6,74.5z"/>
		<path class="st1" d="M903.7,74.5v161h-50.9v-59.8h-51.1v59.8h-50.9v-161h50.9v58h51.1v-58H903.7z"/>
		<path class="st1" d="M966.6,235.6h-50.9v-161h50.9V235.6z"/>
		<path class="st1" d="M994.9,74.5h60.8L1045,179.7h-39.3L994.9,74.5z M1025.4,185c15.7,0,28.3,11.3,28.3,26.2s-12.6,26.2-28.3,26.2
			c-15.7,0-28.3-11.3-28.3-26.2S1009.6,185,1025.4,185z"/>
	</g>
</g>
</svg>
